<svg width="23" height="18" viewBox="0 0 23 18" fill="none" xmlns="http://www.w3.org/2000/svg">
<path d="M1.508 13.096C1.316 13.096 1.16 13.052 1.04 12.964C0.928 12.876 0.86 12.76 0.836 12.616C0.812 12.464 0.84 12.296 0.92 12.112L4.088 5.092C4.192 4.86 4.316 4.696 4.46 4.6C4.612 4.496 4.784 4.444 4.976 4.444C5.16 4.444 5.324 4.496 5.468 4.6C5.62 4.696 5.748 4.86 5.852 5.092L9.032 12.112C9.12 12.296 9.152 12.464 9.128 12.616C9.104 12.768 9.036 12.888 8.924 12.976C8.812 13.056 8.664 13.096 8.48 13.096C8.256 13.096 8.08 13.044 7.952 12.94C7.832 12.828 7.724 12.66 7.628 12.436L6.848 10.624L7.496 11.044H2.432L3.08 10.624L2.312 12.436C2.208 12.668 2.1 12.836 1.988 12.94C1.876 13.044 1.716 13.096 1.508 13.096ZM4.952 6.208L3.272 10.204L2.96 9.82H6.968L6.668 10.204L4.976 6.208H4.952ZM11.1217 13.096C10.8737 13.096 10.6817 13.028 10.5457 12.892C10.4177 12.748 10.3537 12.552 10.3537 12.304V5.32C10.3537 5.064 10.4217 4.872 10.5577 4.744C10.6937 4.608 10.8857 4.54 11.1337 4.54H14.0257C14.9537 4.54 15.6697 4.772 16.1737 5.236C16.6777 5.7 16.9297 6.348 16.9297 7.18C16.9297 8.012 16.6777 8.664 16.1737 9.136C15.6697 9.6 14.9537 9.832 14.0257 9.832H11.8897V12.304C11.8897 12.552 11.8257 12.748 11.6977 12.892C11.5697 13.028 11.3777 13.096 11.1217 13.096ZM11.8897 8.62H13.7857C14.3297 8.62 14.7417 8.5 15.0217 8.26C15.3017 8.012 15.4417 7.652 15.4417 7.18C15.4417 6.708 15.3017 6.352 15.0217 6.112C14.7417 5.872 14.3297 5.752 13.7857 5.752H11.8897V8.62ZM18.9498 13.096C18.7018 13.096 18.5098 13.028 18.3738 12.892C18.2458 12.748 18.1818 12.552 18.1818 12.304V5.236C18.1818 4.98 18.2458 4.784 18.3738 4.648C18.5098 4.512 18.7018 4.444 18.9498 4.444C19.1978 4.444 19.3858 4.512 19.5138 4.648C19.6498 4.784 19.7178 4.98 19.7178 5.236V12.304C19.7178 12.552 19.6538 12.748 19.5258 12.892C19.3978 13.028 19.2058 13.096 18.9498 13.096Z" fill="white"/>
</svg>
