<svg width="25" height="26" viewBox="0 0 25 26" fill="none" xmlns="http://www.w3.org/2000/svg">
<path d="M8.45313 0.903116C8.36563 0.996086 8.28906 1.1164 8.28906 1.17109C8.28906 1.23124 8.37109 1.41171 8.475 1.57577C9.41563 3.10155 9.73828 3.69765 10.2031 4.7914C11.2914 7.35077 11.7891 9.82265 11.7891 12.6719C11.7891 14.9141 11.4938 16.8445 10.8211 18.9664C10.5367 19.8797 10.5367 20.0055 10.832 20.1476C11.0453 20.2516 10.9906 20.268 12.0352 19.7922C13.2602 19.2344 14.7586 18.8023 16.2734 18.5672C16.9461 18.4633 17.2906 18.4469 18.543 18.4469C20.1289 18.4469 20.8016 18.518 22.1414 18.8242C22.7867 18.9719 22.9289 18.9555 23.082 18.7203C23.1641 18.6 23.1641 18.5234 23.1094 18.0476C22.7813 15.2531 21.8625 12.568 20.3914 10.1016C17.9031 5.93984 14.0641 2.68593 9.74375 1.07812C8.73203 0.700773 8.66641 0.695305 8.45313 0.903116Z" fill="#00C7BE"/>
<path d="M7.93905 3.39142C7.8242 3.50626 7.81327 3.58282 7.77499 4.3047C7.52889 9.44532 5.77342 14.3453 2.71639 18.4414C2.42108 18.8297 2.16952 19.1961 2.14764 19.2508C2.10389 19.3711 2.19139 19.6117 2.31717 19.7047C2.44842 19.8086 2.6453 19.7977 3.01717 19.6719C3.72264 19.4258 4.38983 19.3274 5.30858 19.3219C6.48983 19.3219 7.20624 19.4586 8.29999 19.8961C9.07108 20.2078 9.13124 20.1695 9.46483 19.1524C10.1594 17.0031 10.4711 14.9633 10.4765 12.557C10.4765 10.1508 10.1539 7.96329 9.45936 5.72657C9.14764 4.72579 8.62811 3.44064 8.49139 3.34767C8.32186 3.22736 8.0867 3.24376 7.93905 3.39142Z" fill="#00C7BE"/>
<path d="M11.7891 21.2086L1.04297 21.6406L0.889844 21.8047C0.807812 21.8977 0.742188 22.007 0.742188 22.0508C0.742188 22.2203 2.21875 25.0805 2.34453 25.168C2.46484 25.2445 3.41094 25.25 11.3297 25.2391L20.1836 25.2227L20.6211 25.0969C22.3109 24.6211 23.5469 23.4398 24.0938 21.7828C24.2633 21.2688 24.2633 21.0008 24.0992 20.8695C23.9898 20.7766 23.8859 20.7656 23.2516 20.7711C22.8578 20.7766 17.7008 20.9734 11.7891 21.2086Z" fill="#00C7BE"/>
</svg>
