<svg width="20" height="18" viewBox="0 0 20 18" fill="none" xmlns="http://www.w3.org/2000/svg">
<path d="M9.54218 10.8437C10.6285 10.837 11.7384 10.4268 12.6877 9.6474L13.1642 10.2265L12.6877 9.64642L12.6935 9.64252C12.6827 9.65125 12.698 9.63855 12.7629 9.57709C12.8174 9.52543 12.892 9.45412 12.9846 9.3642C13.1696 9.18431 13.4215 8.93553 13.7238 8.63666L15.9767 6.39252C17.4768 4.88851 18.2421 4.11995 18.6516 3.69037C18.9595 3.36729 19.0307 3.2714 19.0539 3.22943L19.0676 3.19916C19.2314 2.85472 19.2769 2.54201 19.2248 2.23529L19.1965 2.10345L19.1955 2.1015C19.0699 1.61356 18.7728 1.24709 18.3664 1.04584L18.1857 0.969666H18.1848C18.0974 0.938942 17.9285 0.905419 17.7258 0.89447C17.6229 0.888929 17.532 0.89063 17.4582 0.895447L17.2932 0.917908L17.2834 0.919861L17.1252 0.967712C17.0221 1.00458 16.9232 1.05184 16.8273 1.11127L16.6857 1.20892L16.6828 1.21088L16.6027 1.28412C16.5431 1.3391 16.4638 1.41417 16.3664 1.50775C16.1718 1.69461 15.9129 1.94752 15.6105 2.24603C15.0062 2.84261 14.2338 3.61472 13.4641 4.39056C12.6943 5.16644 11.9288 5.94485 11.3381 6.55267C11.0425 6.85684 10.7921 7.11729 10.6076 7.31244C10.5152 7.41019 10.4409 7.4893 10.3869 7.54877L10.3166 7.62689C9.68889 8.47503 9.32219 9.47704 9.26483 10.4599L9.258 10.6562C9.25711 10.7411 9.25706 10.7996 9.258 10.8437H9.54218ZM10.3215 10.7109C10.282 10.7156 10.1822 10.7264 10.0627 10.705C9.92503 10.6804 9.73258 10.6066 9.58417 10.4199C9.44875 10.2495 9.42003 10.0708 9.41327 9.9765C9.40173 9.81489 9.44029 9.66293 9.45331 9.61029L9.53339 9.32318C9.67056 8.8461 9.97658 8.21554 10.2756 7.79095V7.78998C10.3233 7.72155 10.3968 7.63982 10.4416 7.59076C10.5024 7.52414 10.5821 7.43951 10.676 7.34076C10.8643 7.14256 11.1204 6.87832 11.4191 6.5722C12.0171 5.9595 12.7947 5.17125 13.5715 4.39056C14.3483 3.60979 15.1256 2.83445 15.7219 2.24701C16.0196 1.95371 16.2746 1.7057 16.4621 1.52631C16.5554 1.43706 16.6357 1.36182 16.6974 1.3056C16.7277 1.27809 16.7577 1.25078 16.7853 1.22748C16.7877 1.22549 16.8626 1.15839 16.9533 1.11029V1.11127C17.184 0.988761 17.4397 0.949801 17.6447 0.948181C17.8499 0.946609 18.1106 0.981384 18.3469 1.10443L18.3459 1.10541C19.0173 1.45128 19.3559 2.22069 19.1017 2.9433L19.0422 3.08783L19.0412 3.08978L18.9621 3.22357C18.9381 3.25719 18.9197 3.2784 18.9182 3.28021C18.8935 3.31049 18.8653 3.34334 18.8371 3.37494C18.7798 3.43917 18.7033 3.52118 18.6135 3.61615C18.4325 3.80757 18.1815 4.06714 17.8859 4.36908C17.294 4.9737 16.5123 5.76056 15.7238 6.54681C14.9352 7.33323 14.1376 8.12098 13.5148 8.72748C13.2039 9.03033 12.9345 9.29013 12.7307 9.48236C12.629 9.57817 12.5402 9.65956 12.4699 9.7226C12.4177 9.76948 12.3307 9.84759 12.2541 9.89838H12.2551C11.803 10.1984 11.1767 10.491 10.6555 10.6376L10.4396 10.6913L10.4289 10.6933L10.3215 10.7109Z" stroke="#F5F5F5" stroke-width="1.5"/>
<path d="M1.9873 17.0846C2.18813 17.1325 2.52194 17.1227 2.75781 17.0641L2.85254 17.0357L2.85742 17.0348C3.03751 16.9717 3.16221 16.9158 3.49219 16.6402L3.90039 16.2828L4.49023 15.7516L4.70312 15.5592L4.99023 15.5582L9.32227 15.5465L13.5381 15.5357L13.7812 15.4596H13.7822C14.9467 15.0984 15.7267 14.2955 16.0205 13.2008V13.1998C16.0644 13.0332 16.0787 12.973 16.0898 12.8297C16.0968 12.7404 16.1013 12.6262 16.1055 12.4605L16.1172 11.7828C16.1253 11.0824 16.1249 10.7956 16.1055 10.6441L16.1045 10.6422C16.1019 10.6393 16.0997 10.6358 16.0967 10.6324L16.1025 10.6275L16.1016 10.6266L16.0957 10.6324L16.0928 10.6295H16.0918C16.0905 10.6304 16.0878 10.6324 16.085 10.6353H16.0859L16.085 10.6363C16.0684 10.7646 16.0625 11.0094 16.0625 11.5894C16.0625 12.2701 16.058 12.5959 16.0186 12.8678L15.9668 13.1324L15.9648 13.1412L15.9072 13.3375C15.616 14.2391 14.9771 14.9222 14.0918 15.2877L13.8984 15.3609L13.7129 15.4088C13.5102 15.4461 13.2439 15.4551 12.8086 15.4635C12.4892 15.4696 12.0458 15.4746 11.4238 15.4791L8.96875 15.4918C6.91879 15.5016 5.79888 15.508 5.17773 15.5191C4.92107 15.5237 4.76233 15.5309 4.66309 15.5367C4.63045 15.5634 4.59197 15.5949 4.54883 15.6314L4.03906 16.0787L4.03613 16.0816L3.73926 16.3424C3.64297 16.4253 3.55141 16.503 3.46875 16.5709C3.38652 16.6384 3.30934 16.6993 3.24414 16.7486C3.222 16.7654 3.18743 16.7919 3.14648 16.8199L3.01074 16.901L3.00391 16.9049L2.99609 16.9088L2.87988 16.9576C2.6044 17.0589 2.31443 17.0693 2.05957 17.023C1.8058 16.977 1.53477 16.8651 1.3125 16.6676L1.2207 16.5777L1.2168 16.5738C1.21096 16.5675 1.21114 16.568 1.19043 16.5465C1.17491 16.5303 1.14468 16.4981 1.1123 16.4576C1.03509 16.3611 0.974257 16.2513 0.931641 16.1207C0.864932 15.9162 0.846691 15.6605 0.834961 15.3609C0.809792 14.7181 0.8125 13.4393 0.8125 10.8082C0.8125 8.15143 0.810684 6.83969 0.839844 6.13632C0.85434 5.78671 0.877639 5.53357 0.929688 5.32089C0.985146 5.09444 1.07141 4.93454 1.12012 4.83456V4.83359C1.50489 4.02765 2.16183 3.48151 3.04395 3.18906V3.18808C3.26932 3.11151 3.50795 3.09665 3.99707 3.08456C4.25839 3.07811 4.61837 3.07251 5.12207 3.06796L7.10938 3.05429L10.4824 3.03671V3.03476C10.4793 3.03101 10.4763 3.02688 10.4727 3.02304C10.4299 3.02156 10.3776 3.0196 10.3164 3.01816C10.1202 3.01352 9.84617 3.0096 9.51758 3.00644C8.86078 3.00012 7.99617 2.99667 7.12402 2.99667C6.25193 2.99667 5.37379 3.00012 4.69043 3.00644C4.34865 3.0096 4.05754 3.0135 3.84082 3.01816L3.50195 3.0289C2.39955 3.17001 1.43719 3.91064 0.99707 4.9498L0.916992 5.16074C0.861809 5.3222 0.841874 5.38019 0.824219 5.47812C0.804654 5.5867 0.786768 5.75856 0.774414 6.11191C0.74962 6.82141 0.75 8.12253 0.75 10.816C0.75 13.2118 0.751075 14.4503 0.760742 15.1256C0.770599 15.8139 0.790504 15.8512 0.801758 15.8961L0.800781 15.8971C0.956471 16.5038 1.39637 16.9367 1.9873 17.0846Z" stroke="#F5F5F5" stroke-width="1.5"/>
</svg>
