<svg width="31" height="22" viewBox="0 0 31 22" fill="none" xmlns="http://www.w3.org/2000/svg">
<path d="M13.8887 0.429672C13.7598 0.441391 13.3262 0.482407 12.9219 0.517563C10.0742 0.769516 7.53125 1.58397 6.48242 2.58592C5.83203 3.21288 5.1875 4.29686 4.50781 5.90233L4.20312 6.63475L2.59766 6.66405C1.17969 6.68748 0.980469 6.70506 0.839844 6.79881C0.675781 6.916 0.5 7.22655 0.5 7.41405C0.5 7.66014 0.980469 9.80467 1.0625 9.93358C1.23828 10.2031 1.48438 10.2969 2.03516 10.2969H2.54492L2.24023 10.748C1.89453 11.2578 1.60742 11.9023 1.45508 12.5058C1.30273 13.1094 1.32031 14.4512 1.49023 15.0723C1.71875 15.916 2.22266 16.8242 2.75 17.3223L2.96094 17.5273V19.1094C2.96094 20.8789 2.99023 21.0078 3.36523 21.3301C3.68164 21.5937 3.86328 21.6172 5.60352 21.5937L7.2207 21.5762L7.43164 21.418C7.85938 21.084 7.90625 20.9609 7.94141 20.082L7.9707 19.291H15.5H23.0293L23.0586 20.082C23.0938 20.9609 23.1406 21.084 23.5684 21.418L23.7793 21.5762L25.3965 21.5937C27.1367 21.6172 27.3184 21.5937 27.6348 21.3301C28.0098 21.0137 28.0391 20.873 28.0391 19.1504V17.6094L28.3203 17.2988C28.9004 16.666 29.2754 15.9687 29.5098 15.0957C29.6973 14.4101 29.6973 13.1211 29.5156 12.4473C29.3516 11.8555 29.0059 11.123 28.6602 10.6601L28.3906 10.2969H28.9355C29.5156 10.2969 29.7559 10.209 29.9375 9.93358C30.0254 9.80467 30.5 7.666 30.5 7.41405C30.5 7.22655 30.3301 6.916 30.1602 6.79881C30.0195 6.70506 29.8203 6.68748 28.3965 6.66405L26.7969 6.63475L26.4922 5.90233C25.8242 4.28514 25.2734 3.36522 24.5586 2.64452C24.1484 2.24022 23.9902 2.12889 23.4102 1.84178C22.0977 1.19725 20.5332 0.792953 18.3711 0.535141C17.627 0.45311 14.4688 0.371078 13.8887 0.429672ZM18.1953 2.8203C20.1406 3.06053 21.5117 3.42381 22.502 3.95702C23.041 4.24998 23.3691 4.66014 23.8496 5.63866C24.1953 6.33592 24.7578 7.70702 24.7578 7.83592C24.7578 7.87108 21.3477 7.89452 15.5 7.89452C8.92578 7.89452 6.24219 7.87694 6.24219 7.83006C6.24219 7.79491 6.35938 7.47264 6.5 7.11522C7.0625 5.67967 7.63672 4.61327 8.03516 4.26756C8.88477 3.51756 11.1582 2.92577 14.0059 2.71483C14.6738 2.66209 17.5039 2.73827 18.1953 2.8203ZM7.39062 11.7676C9.17773 12.0957 9.86914 14.293 8.58594 15.5703C7.71289 16.4492 6.29492 16.4492 5.42188 15.5703C4.16211 14.3164 4.77734 12.1719 6.50586 11.791C6.95117 11.6914 6.97461 11.6914 7.39062 11.7676ZM24.8516 11.8848C26.0469 12.3301 26.6152 13.7656 26.0645 14.9316C25.502 16.1269 24.1074 16.5723 22.9121 15.9394C22.625 15.7871 22.1738 15.3183 22.0156 15.0078C21.5879 14.1523 21.7578 13.0683 22.4316 12.3945C23.0703 11.7617 23.9902 11.5683 24.8516 11.8848Z" fill="#FFCC00"/>
</svg>
