<svg width="37" height="31" viewBox="0 0 37 31" fill="none" xmlns="http://www.w3.org/2000/svg">
<path d="M9.37659 0.184013C5.64337 0.813054 2.67593 3.02837 1.117 6.33768C-0.154753 9.04529 -0.332526 11.5751 0.542662 14.3374C1.80075 18.2758 5.2468 21.1885 9.43129 21.8586C10.4159 22.0227 12.1936 21.9953 12.3577 21.8176C12.4534 21.7218 12.2757 19.7527 12.1526 19.5612C12.0979 19.4655 11.4552 19.3424 10.703 19.2604C8.62448 19.0416 7.35272 18.5766 5.91686 17.4963C4.13914 16.1562 2.84003 13.4076 2.84003 10.9871C2.84003 8.41625 4.42631 5.58556 6.71 4.08133C9.11677 2.50873 12.6312 2.41301 15.3525 3.84886C16.5422 4.4779 17.8687 5.85906 18.484 7.10347C19.3182 8.78547 19.4002 9.51023 19.5233 15.5682C19.6327 21.2022 19.6327 21.2842 20.2754 22.556C20.672 23.3218 21.7523 24.3201 22.1899 24.3201C22.2446 24.3201 22.2583 20.956 22.2309 16.8263L22.1762 9.34614L21.7933 8.1154C20.4122 3.60272 17.0755 0.731005 12.5081 0.115638C11.1953 -0.0484593 10.7304 -0.0484593 9.37659 0.184013Z" fill="#F5F5F5"/>
<path d="M14.6004 13.5716C14.6004 19.6843 14.6414 21.2022 14.8055 22.009C15.5849 25.7285 18.3746 28.737 22.1625 29.9814C25.13 30.9523 28.0837 30.6925 30.9417 29.2019C32.3502 28.4635 34.2647 26.6174 35.1126 25.1679C36.3023 23.144 36.8903 20.4911 36.6168 18.3988C36.2476 15.5955 35.2767 13.6673 33.2801 11.7665C31.0922 9.70165 27.5094 8.34784 25.0206 8.66236L24.2821 8.75809L24.3642 9.18201C24.4052 9.42815 24.4736 9.96147 24.5146 10.3854L24.6103 11.1512L25.7863 11.2332C28.2068 11.411 29.8204 12.0811 31.393 13.5716C32.487 14.6109 33.2801 15.9921 33.6904 17.551C33.9775 18.645 33.9912 20.8876 33.7041 21.8312C32.9519 24.32 30.7229 26.5627 28.0974 27.4926C26.8256 27.9438 24.6377 27.9028 23.1471 27.4242C21.1643 26.7815 19.619 25.6602 18.6618 24.2106C17.3353 22.2141 17.1986 21.2979 17.1986 14.8981C17.1986 10.4811 17.1712 9.90677 16.9387 9.16833C16.5969 8.047 15.8721 7.02139 14.9833 6.37867L14.6004 6.11885V13.5716Z" fill="#F5F5F5"/>
</svg>
