<svg width="29" height="28" viewBox="0 0 29 28" fill="none" xmlns="http://www.w3.org/2000/svg">
<path d="M4.508 18.096C4.316 18.096 4.16 18.052 4.04 17.964C3.928 17.876 3.86 17.76 3.836 17.616C3.812 17.464 3.84 17.296 3.92 17.112L7.088 10.092C7.192 9.86 7.316 9.696 7.46 9.6C7.612 9.496 7.784 9.444 7.976 9.444C8.16 9.444 8.324 9.496 8.468 9.6C8.62 9.696 8.748 9.86 8.852 10.092L12.032 17.112C12.12 17.296 12.152 17.464 12.128 17.616C12.104 17.768 12.036 17.888 11.924 17.976C11.812 18.056 11.664 18.096 11.48 18.096C11.256 18.096 11.08 18.044 10.952 17.94C10.832 17.828 10.724 17.66 10.628 17.436L9.848 15.624L10.496 16.044H5.432L6.08 15.624L5.312 17.436C5.208 17.668 5.1 17.836 4.988 17.94C4.876 18.044 4.716 18.096 4.508 18.096ZM7.952 11.208L6.272 15.204L5.96 14.82H9.968L9.668 15.204L7.976 11.208H7.952ZM14.1217 18.096C13.8737 18.096 13.6817 18.028 13.5457 17.892C13.4177 17.748 13.3537 17.552 13.3537 17.304V10.32C13.3537 10.064 13.4217 9.872 13.5577 9.744C13.6937 9.608 13.8857 9.54 14.1337 9.54H17.0257C17.9537 9.54 18.6697 9.772 19.1737 10.236C19.6777 10.7 19.9297 11.348 19.9297 12.18C19.9297 13.012 19.6777 13.664 19.1737 14.136C18.6697 14.6 17.9537 14.832 17.0257 14.832H14.8897V17.304C14.8897 17.552 14.8257 17.748 14.6977 17.892C14.5697 18.028 14.3777 18.096 14.1217 18.096ZM14.8897 13.62H16.7857C17.3297 13.62 17.7417 13.5 18.0217 13.26C18.3017 13.012 18.4417 12.652 18.4417 12.18C18.4417 11.708 18.3017 11.352 18.0217 11.112C17.7417 10.872 17.3297 10.752 16.7857 10.752H14.8897V13.62ZM21.9498 18.096C21.7018 18.096 21.5098 18.028 21.3738 17.892C21.2458 17.748 21.1818 17.552 21.1818 17.304V10.236C21.1818 9.98 21.2458 9.784 21.3738 9.648C21.5098 9.512 21.7018 9.444 21.9498 9.444C22.1978 9.444 22.3858 9.512 22.5138 9.648C22.6498 9.784 22.7178 9.98 22.7178 10.236V17.304C22.7178 17.552 22.6538 17.748 22.5258 17.892C22.3978 18.028 22.2058 18.096 21.9498 18.096Z" fill="white"/>
<circle cx="14.5" cy="14" r="13" stroke="#FF5594" stroke-width="2"/>
<path d="M4.15481 6.24421L23.5001 23.0002" stroke="#FF5594" stroke-width="2"/>
</svg>
